<?xml version="1.0" standalone="no"?>
<!DOCTYPE svg PUBLIC "-//W3C//DTD SVG 20010904//EN"
 "http://www.w3.org/TR/2001/REC-SVG-20010904/DTD/svg10.dtd">
<svg version="1.0" xmlns="http://www.w3.org/2000/svg"
 width="512.000000pt" height="512.000000pt" viewBox="0 0 512.000000 512.000000"
 preserveAspectRatio="xMidYMid meet">

<g transform="translate(0.000000,512.000000) scale(0.100000,-0.100000)"
fill="#000000" stroke="none">
<path d="M1033 3979 c-17 -11 -41 -39 -52 -63 -21 -42 -21 -50 -21 -1357 0
-1231 1 -1316 18 -1349 26 -53 74 -80 142 -80 68 0 116 27 142 80 17 33 18
118 18 1350 l0 1315 -23 40 c-12 22 -38 50 -56 62 -45 30 -123 31 -168 2z"/>
<path d="M4883 3984 c-18 -9 -43 -33 -55 -53 l-23 -36 -3 -1325 -2 -1325 22
-44 c28 -54 74 -81 138 -81 63 0 110 27 138 80 l22 44 0 1311 c0 1256 -1 1312
-19 1351 -10 23 -33 51 -51 64 -43 31 -122 37 -167 14z"/>
<path d="M2494 3821 c-48 -22 -80 -60 -94 -112 -7 -25 -9 -422 -8 -1176 l3
-1138 22 -35 c61 -97 215 -102 273 -8 20 33 20 46 20 1208 0 1161 0 1175 -20
1208 -22 35 -88 72 -130 72 -14 0 -43 -9 -66 -19z"/>
<path d="M1543 3509 c-44 -13 -90 -62 -103 -109 -7 -26 -10 -312 -8 -862 3
-759 4 -825 20 -855 52 -94 189 -111 264 -32 l29 30 3 872 c2 861 2 872 -18
905 -33 54 -107 74 -187 51z"/>
<path d="M4428 3508 c-22 -6 -50 -24 -68 -44 l-30 -35 0 -863 0 -863 23 -34
c27 -41 79 -69 127 -69 52 1 117 34 140 72 20 32 20 48 20 889 l0 856 -23 34
c-40 61 -104 80 -189 57z"/>
<path d="M2953 3339 c-17 -11 -41 -39 -52 -63 -21 -41 -21 -56 -21 -717 l0
-675 23 -44 c27 -53 74 -80 137 -80 63 0 110 27 138 80 l22 44 0 668 c0 751 3
724 -73 779 -50 36 -124 40 -174 8z"/>
<path d="M584 3189 c-46 -13 -91 -59 -103 -107 -8 -29 -11 -198 -9 -551 3
-497 4 -510 24 -537 35 -47 70 -67 126 -71 65 -5 112 17 145 66 l23 34 0 541
c0 525 -1 542 -20 574 -33 54 -107 74 -186 51z"/>
<path d="M3444 3021 c-17 -10 -40 -31 -52 -46 -22 -27 -22 -33 -22 -404 0
-421 1 -425 71 -463 78 -42 179 -14 223 62 20 33 21 53 24 358 3 335 -3 407
-37 449 -51 61 -146 81 -207 44z"/>
<path d="M83 2861 c-30 -14 -48 -31 -62 -60 -19 -37 -21 -58 -21 -242 0 -223
6 -250 64 -292 44 -31 148 -31 192 0 58 41 64 69 64 289 0 177 -2 202 -20 239
-37 77 -129 105 -217 66z"/>
<path d="M2009 2857 c-31 -16 -51 -36 -66 -67 -21 -41 -23 -57 -23 -232 0
-138 4 -197 14 -221 53 -124 241 -124 292 0 17 40 20 387 3 430 -22 60 -97
113 -160 113 -9 0 -36 -10 -60 -23z"/>
<path d="M3945 2870 c-17 -5 -41 -19 -54 -31 -45 -42 -51 -75 -51 -281 0 -170
3 -198 20 -236 34 -74 130 -102 218 -62 34 15 47 29 63 65 18 42 20 63 17 248
-3 193 -4 203 -26 235 -40 55 -121 82 -187 62z"/>
</g>
</svg>
